<svg width="256" height="256" viewBox="0 0 256 256" fill="none" xmlns="http://www.w3.org/2000/svg">
<rect width="256" height="256" fill="#6817C5"/>
<circle cx="128" cy="128" r="128" fill="#6817C5"/>
<path d="M127.051 51.7753C127.638 51.4356 128.361 51.4356 128.947 51.7753L193.611 89.2244C194.198 89.5641 194.559 90.1919 194.559 90.8714V165.77C194.559 166.449 194.198 167.077 193.611 167.417L128.947 204.866C128.361 205.205 127.638 205.205 127.051 204.866L62.3875 167.417C61.8008 167.077 61.4395 166.449 61.4395 165.77V90.8714C61.4395 90.1919 61.8008 89.5641 62.3875 89.2244L127.051 51.7753Z" fill="white"/>
<path fill-rule="evenodd" clip-rule="evenodd" d="M128 51.5205C128.327 51.5206 128.654 51.6055 128.948 51.7753L193.612 89.2244C194.198 89.5641 194.56 90.1919 194.56 90.8714V165.77C194.56 166.449 194.198 167.077 193.612 167.417L128.948 204.866C128.654 205.035 128.327 205.12 128 205.12V51.5205Z" fill="#D9D9D9"/>
<g clip-path="url(#clip0_1579_1010)">
<mask id="mask0_1579_1010" style="mask-type:alpha" maskUnits="userSpaceOnUse" x="89" y="89" width="78" height="78">
<path d="M128.001 166.721C149.208 166.721 166.401 149.529 166.401 128.321C166.401 107.113 149.208 89.9209 128.001 89.9209C106.793 89.9209 89.6006 107.113 89.6006 128.321C89.6006 149.529 106.793 166.721 128.001 166.721Z" fill="white"/>
</mask>
<g mask="url(#mask0_1579_1010)">
<path fill-rule="evenodd" clip-rule="evenodd" d="M172.889 156.656C188.49 156.656 201.137 144.009 201.137 128.407C201.137 112.806 188.49 100.159 172.889 100.159C157.288 100.159 144.641 112.806 144.641 128.407C144.641 144.009 157.288 156.656 172.889 156.656ZM172.889 144.297C181.664 144.297 188.779 137.183 188.779 128.407C188.779 119.632 181.664 112.518 172.889 112.518C164.114 112.518 156.999 119.632 156.999 128.407C156.999 137.183 164.114 144.297 172.889 144.297Z" fill="#6817C5"/>
<path fill-rule="evenodd" clip-rule="evenodd" d="M150.488 118.256C166.089 118.256 178.737 105.609 178.737 90.008C178.737 74.4069 166.089 61.7598 150.488 61.7598C134.887 61.7598 122.24 74.4069 122.24 90.008C122.24 105.609 134.887 118.256 150.488 118.256ZM150.488 105.898C159.264 105.898 166.378 98.7836 166.378 90.008C166.378 81.2324 159.264 74.1184 150.488 74.1184C141.713 74.1184 134.599 81.2324 134.599 90.008C134.599 98.7836 141.713 105.898 150.488 105.898Z" fill="#6817C5"/>
<path fill-rule="evenodd" clip-rule="evenodd" d="M105.931 118.168C121.532 118.168 134.179 105.521 134.179 89.9201C134.179 74.319 121.532 61.6719 105.931 61.6719C90.3298 61.6719 77.6826 74.319 77.6826 89.9201C77.6826 105.521 90.3298 118.168 105.931 118.168ZM105.931 105.81C114.706 105.81 121.821 98.6957 121.821 89.9201C121.821 81.1445 114.706 74.0305 105.931 74.0305C97.1553 74.0305 90.0412 81.1445 90.0412 89.9201C90.0412 98.6957 97.1553 105.81 105.931 105.81Z" fill="#6817C5"/>
<path fill-rule="evenodd" clip-rule="evenodd" d="M83.928 156.656C99.5291 156.656 112.176 144.009 112.176 128.407C112.176 112.806 99.5291 100.159 83.928 100.159C68.3269 100.159 55.6797 112.806 55.6797 128.407C55.6797 144.009 68.3269 156.656 83.928 156.656ZM83.9279 144.297C92.7035 144.297 99.8175 137.183 99.8175 128.408C99.8175 119.632 92.7035 112.518 83.9279 112.518C75.1523 112.518 68.0382 119.632 68.0382 128.408C68.0382 137.183 75.1523 144.297 83.9279 144.297Z" fill="#6817C5"/>
<path fill-rule="evenodd" clip-rule="evenodd" d="M105.931 194.968C121.532 194.968 134.179 182.321 134.179 166.72C134.179 151.119 121.532 138.472 105.931 138.472C90.3298 138.472 77.6826 151.119 77.6826 166.72C77.6826 182.321 90.3298 194.968 105.931 194.968ZM105.931 182.61C114.706 182.61 121.821 175.496 121.821 166.72C121.821 157.944 114.706 150.83 105.931 150.83C97.1553 150.83 90.0412 157.944 90.0412 166.72C90.0412 175.496 97.1553 182.61 105.931 182.61Z" fill="#6817C5"/>
<path fill-rule="evenodd" clip-rule="evenodd" d="M150.071 194.968C165.671 194.968 178.319 182.321 178.319 166.72C178.319 151.119 165.671 138.472 150.071 138.472C134.469 138.472 121.822 151.119 121.822 166.72C121.822 182.321 134.469 194.968 150.071 194.968ZM150.071 182.61C158.846 182.61 165.96 175.496 165.96 166.72C165.96 157.944 158.846 150.83 150.071 150.83C141.295 150.83 134.181 157.944 134.181 166.72C134.181 175.496 141.295 182.61 150.071 182.61Z" fill="#6817C5"/>
</g>
<circle cx="128" cy="128.32" r="6.4" fill="#6817C5"/>
</g>
<rect x="104.225" y="135.328" width="12.3683" height="59.5396" transform="rotate(60.9936 104.225 135.328)" fill="#6817C5"/>
<defs>
<clipPath id="clip0_1579_1010">
<rect width="76.8" height="76.8" fill="white" transform="translate(89.5996 89.9199)"/>
</clipPath>
</defs>
</svg>
